<svg width="24" height="24" viewBox="0 0 24 24" fill="none" xmlns="http://www.w3.org/2000/svg">
<path d="M21.375 16.4063C21.2893 16.4551 21.1949 16.4866 21.097 16.4989C20.9992 16.5112 20.8999 16.5041 20.8048 16.4779C20.7097 16.4518 20.6207 16.4072 20.5429 16.3466C20.465 16.2861 20.3999 16.2108 20.3512 16.125L18.57 13.0125C17.5344 13.7127 16.3921 14.2402 15.1875 14.5744L15.7378 17.8763C15.754 17.9735 15.751 18.0729 15.7288 18.1689C15.7065 18.2649 15.6656 18.3556 15.6083 18.4358C15.551 18.516 15.4785 18.5841 15.3949 18.6363C15.3112 18.6884 15.2182 18.7235 15.1209 18.7397C15.0809 18.7462 15.0405 18.7497 15 18.75C14.8226 18.7497 14.651 18.6866 14.5157 18.5717C14.3805 18.4569 14.2903 18.2978 14.2612 18.1228L13.7203 14.8809C12.5796 15.0397 11.4223 15.0397 10.2816 14.8809L9.74062 18.1228C9.71152 18.2982 9.62108 18.4575 9.48543 18.5723C9.34978 18.6872 9.17775 18.7502 9 18.75C8.95854 18.7498 8.91716 18.7464 8.87625 18.7397C8.77903 18.7235 8.68595 18.6884 8.60232 18.6363C8.51869 18.5841 8.44616 18.516 8.38887 18.4358C8.33158 18.3556 8.29065 18.2649 8.26843 18.1689C8.24621 18.0729 8.24314 17.9735 8.25937 17.8763L8.8125 14.5744C7.6084 14.2391 6.46669 13.7107 5.43187 13.0097L3.65625 16.125C3.607 16.2108 3.54134 16.2861 3.463 16.3465C3.38467 16.4069 3.29519 16.4514 3.1997 16.4772C3.1042 16.5031 3.00454 16.5099 2.90642 16.4972C2.80829 16.4845 2.71362 16.4527 2.62781 16.4034C2.542 16.3542 2.46673 16.2885 2.4063 16.2102C2.34586 16.1319 2.30145 16.0424 2.2756 15.9469C2.24974 15.8514 2.24295 15.7517 2.25561 15.6536C2.26827 15.5555 2.30013 15.4608 2.34937 15.375L4.22437 12.0938C3.56578 11.5248 2.96017 10.8972 2.415 10.2188C2.34701 10.1428 2.2952 10.0539 2.26274 9.95727C2.23028 9.86067 2.21785 9.75847 2.2262 9.65691C2.23455 9.55535 2.26351 9.45655 2.31132 9.36655C2.35912 9.27655 2.42477 9.19724 2.50424 9.13346C2.58372 9.06967 2.67536 9.02275 2.77357 8.99556C2.87178 8.96837 2.97451 8.96148 3.07547 8.97531C3.17643 8.98915 3.27352 9.02341 3.3608 9.07601C3.44808 9.12861 3.52373 9.19844 3.58312 9.28125C5.13937 11.2069 7.86187 13.5 12 13.5C16.1381 13.5 18.8606 11.2041 20.4169 9.28125C20.4756 9.19675 20.5511 9.12523 20.6386 9.07115C20.7262 9.01707 20.8239 8.98158 20.9257 8.96689C21.0276 8.95221 21.1314 8.95863 21.2306 8.98577C21.3299 9.01292 21.4225 9.06019 21.5027 9.12466C21.5829 9.18913 21.649 9.26942 21.6968 9.36052C21.7446 9.45162 21.7732 9.5516 21.7808 9.65422C21.7883 9.75684 21.7747 9.85992 21.7407 9.95704C21.7067 10.0542 21.653 10.1432 21.5831 10.2188C21.038 10.8972 20.4323 11.5248 19.7737 12.0938L21.6487 15.375C21.6991 15.4605 21.7319 15.5552 21.7454 15.6535C21.7589 15.7519 21.7527 15.8519 21.7273 15.9478C21.7018 16.0437 21.6575 16.1336 21.5971 16.2123C21.5366 16.291 21.4611 16.3569 21.375 16.4063Z" fill="#493E3E"/>
</svg>
